<?xml version="1.0" encoding="UTF-8" standalone="no"?>
<svg
   xmlns:dc="http://purl.org/dc/elements/1.1/"
   xmlns:cc="http://creativecommons.org/ns#"
   xmlns:rdf="http://www.w3.org/1999/02/22-rdf-syntax-ns#"
   xmlns:svg="http://www.w3.org/2000/svg"
   xmlns="http://www.w3.org/2000/svg"
   xmlns:sodipodi="http://sodipodi.sourceforge.net/DTD/sodipodi-0.dtd"
   xmlns:inkscape="http://www.inkscape.org/namespaces/inkscape"
   version="1.1"
   id="Layer_1"
   x="0px"
   y="0px"
   viewBox="0 0 427 150"
   xml:space="preserve"
   sodipodi:docname="vertical_padding_dark.svg"
   width="427"
   height="150"
   inkscape:version="1.0.1 (3bc2e813f5, 2020-09-07)"><metadata
   id="metadata27"><rdf:RDF><cc:Work
       rdf:about=""><dc:format>image/svg+xml</dc:format><dc:type
         rdf:resource="http://purl.org/dc/dcmitype/StillImage" /><dc:title></dc:title></cc:Work></rdf:RDF></metadata><defs
   id="defs25" /><sodipodi:namedview
   pagecolor="#ffffff"
   bordercolor="#666666"
   borderopacity="1"
   objecttolerance="10"
   gridtolerance="10"
   guidetolerance="10"
   inkscape:pageopacity="0"
   inkscape:pageshadow="2"
   inkscape:window-width="2560"
   inkscape:window-height="1387"
   id="namedview23"
   showgrid="false"
   inkscape:zoom="1.7255393"
   inkscape:cx="191.60353"
   inkscape:cy="21.636368"
   inkscape:window-x="1912"
   inkscape:window-y="-8"
   inkscape:window-maximized="1"
   inkscape:current-layer="Layer_1" />
<style
   type="text/css"
   id="style2">
	.st0{fill:#FFFFFF;}
	.st1{fill:#C32126;}
</style>
<g
   id="g20"
   transform="translate(0,6.75)">
	<path
   class="st0"
   d="M 0,19.1 38.8,0.4 V 7 l -32,15.4 32,15.5 v 6.6 L 0,25.7 Z"
   id="path4" />
	<path
   class="st0"
   d="m 67.4,45.1 c -3,0 -5.8,-0.6 -8.4,-1.8 -2.6,-1.2 -4.9,-2.8 -6.8,-4.8 -1.9,-2 -3.5,-4.4 -4.6,-7.2 -1.1,-2.8 -1.7,-5.7 -1.7,-8.8 0,-3.1 0.6,-6 1.7,-8.8 1.1,-2.8 2.7,-5.1 4.6,-7.2 1.9,-2 4.2,-3.6 6.8,-4.8 2.6,-1.1 5.4,-1.7 8.4,-1.7 3.5,0 6.7,0.8 9.6,2.3 2.9,1.6 5.4,3.7 7.4,6.4 l -6.1,4.8 C 77.1,11.8 75.6,10.4 73.8,9.4 72,8.4 70,7.9 67.9,7.9 c -1.8,0 -3.5,0.4 -5.1,1.1 -1.6,0.7 -3,1.8 -4.2,3.1 -1.2,1.3 -2.1,2.9 -2.8,4.7 -0.7,1.8 -1,3.7 -1,5.7 0,2 0.3,3.9 1,5.7 0.7,1.8 1.6,3.4 2.8,4.7 1.2,1.3 2.6,2.4 4.2,3.2 1.6,0.8 3.3,1.2 5.1,1.2 2.3,0 4.5,-0.6 6.4,-1.9 1.9,-1.3 3.5,-2.9 4.7,-5 l 5.9,5.2 c -1.9,2.9 -4.4,5.2 -7.4,6.9 -3.2,1.7 -6.5,2.6 -10.1,2.6 z"
   id="path6" />
	<path
   class="st0"
   d="m 149.4,44 h -8.7 V 1 h 6.9 l 1.8,3.7 c 1.1,-1.3 2.4,-2.3 3.9,-3.3 1.5,-0.9 3.3,-1.4 5.5,-1.4 0.8,0 1.8,0.1 2.8,0.3 1,0.2 2.1,0.6 3.2,1.1 1.1,0.5 2.2,1.2 3.2,2.1 1,0.9 1.9,2 2.6,3.4 1,-1.9 2.6,-3.5 4.6,-4.8 2,-1.3 4.3,-2 6.6,-2 1.6,0 3.2,0.2 4.9,0.7 1.7,0.5 3.4,1.4 4.8,2.7 1.5,1.3 2.7,3.1 3.7,5.5 1,2.3 1.4,5.4 1.4,9.1 v 26 h -8.2 V 17.9 c 0,-3.7 -0.8,-6.3 -2.3,-7.8 -1.5,-1.5 -3.5,-2.2 -6.1,-2.2 -1.9,0 -3.6,0.8 -5,2.4 -1.4,1.6 -2.2,4.2 -2.2,7.6 v 26 h -8.2 v -26 c 0,-3.7 -0.8,-6.3 -2.3,-7.8 -1.5,-1.5 -3.5,-2.2 -6.1,-2.2 -1.8,0 -3.4,0.7 -4.7,2.1 -1.3,1.4 -2.1,3.5 -2.4,6.5 z"
   id="path8" />
	<path
   class="st1"
   d="m 277.6,35 c 0.5,-0.5 1,-1 1.4,-1.6 0.4,-0.6 0.6,-1.3 0.6,-2.1 0,-1 -0.3,-1.8 -1,-2.4 -0.7,-0.7 -1.5,-1.2 -2.5,-1.7 -1,-0.5 -2,-0.8 -3.1,-1 -1.1,-0.2 -2,-0.4 -2.7,-0.6 -2,-0.5 -3.8,-1.1 -5.6,-1.8 -1.7,-0.7 -3.2,-1.5 -4.5,-2.5 -1.3,-1 -2.3,-2.2 -3.1,-3.5 -0.7,-1.3 -1.1,-2.9 -1.1,-4.8 0,-1.7 0.4,-3.4 1.2,-4.9 0.8,-1.5 1.9,-2.9 3.3,-4 1.4,-1.2 3,-2.1 4.9,-2.8 1.9,-0.7 3.9,-1 6,-1 1.9,0 3.6,0.3 5.3,0.8 1.7,0.5 3.2,1.3 4.5,2.2 1.3,0.9 2.5,2.1 3.4,3.4 0.9,1.3 1.5,2.8 1.8,4.4 l -7.8,1.9 c -0.4,-1.4 -1.1,-2.6 -2.3,-3.6 -1.2,-1 -2.8,-1.4 -4.9,-1.4 -0.7,0 -1.5,0.1 -2.2,0.3 -0.8,0.2 -1.5,0.5 -2.2,0.9 -0.7,0.4 -1.2,0.9 -1.7,1.5 -0.4,0.6 -0.7,1.3 -0.7,2.1 0,0.8 0.3,1.6 0.8,2.1 0.5,0.6 1.1,1.1 1.8,1.5 0.7,0.4 1.5,0.7 2.3,0.9 0.8,0.2 1.6,0.4 2.3,0.6 3.2,0.8 5.8,1.6 7.9,2.5 2.1,0.9 3.8,1.9 5,3 1.3,1.1 2.1,2.3 2.6,3.5 0.5,1.2 0.8,2.7 0.8,4.3 0,1.9 -0.4,3.7 -1.3,5.4 -0.9,1.7 -2.1,3.1 -3.6,4.3 -1.5,1.2 -3.3,2.2 -5.5,2.9 -2.1,0.7 -4.4,1 -6.8,1 -3.7,0 -7,-0.9 -9.9,-2.7 -2.9,-1.8 -4.8,-4.3 -5.9,-7.3 l 7.4,-3.3 c 1,2.1 2.2,3.5 3.7,4.3 1.5,0.7 3.2,1.1 5.1,1.1 2.7,0.1 4.7,-0.6 6.3,-1.9 z"
   id="path10" />
	<path
   class="st1"
   d="m 363.2,45.1 c -3,0 -5.8,-0.6 -8.4,-1.8 -2.6,-1.2 -4.9,-2.8 -6.8,-4.8 -1.9,-2 -3.5,-4.4 -4.6,-7.2 -1.1,-2.8 -1.7,-5.7 -1.7,-8.8 0,-3.1 0.6,-6 1.7,-8.8 1.1,-2.8 2.6,-5.1 4.6,-7.2 1.9,-2 4.2,-3.6 6.8,-4.8 2.6,-1.2 5.4,-1.8 8.4,-1.8 3.5,0 6.7,0.8 9.6,2.3 2.9,1.6 5.4,3.7 7.4,6.4 l -6.1,4.8 c -1.2,-1.7 -2.7,-3.1 -4.5,-4.1 -1.8,-1 -3.8,-1.5 -5.9,-1.5 -1.8,0 -3.5,0.4 -5.1,1.1 -1.6,0.7 -3,1.8 -4.2,3.1 -1.2,1.3 -2.1,2.9 -2.8,4.7 -0.7,1.8 -1,3.7 -1,5.7 0,2 0.3,3.9 1,5.7 0.7,1.8 1.6,3.4 2.8,4.7 1.2,1.3 2.6,2.4 4.2,3.2 1.6,0.8 3.3,1.2 5.1,1.2 2.3,0 4.5,-0.6 6.4,-1.9 1.9,-1.3 3.5,-2.9 4.7,-5 l 5.9,5.2 c -1.9,2.9 -4.4,5.2 -7.4,6.9 -3.2,1.8 -6.5,2.7 -10.1,2.7 z"
   id="path12" />
	<path
   class="st1"
   d="M 388.3,0.4 427,19.1 v 6.6 l -38.8,18.8 v -6.6 l 32,-15.5 -32,-15.4 z"
   id="path14" />
	<path
   class="st1"
   d="m 334.9,13.7 c -1.1,-2.8 -2.7,-5.1 -4.6,-7.2 -1.9,-2 -4.2,-3.6 -6.9,-4.8 C 320.7,0.6 318,0 315,0 c -3,0 -5.8,0.6 -8.4,1.8 -2.6,1.2 -4.9,2.8 -6.8,4.8 -1.9,2 -3.5,4.4 -4.6,7.2 -1.1,2.8 -1.7,5.7 -1.7,8.8 0,3.1 0.6,6 1.7,8.8 1.1,2.8 2.7,5.1 4.6,7.2 1.9,2 4.2,3.6 6.8,4.8 1.2,0.5 2.4,0.9 3.7,1.2 l -0.1,17.3 v 11 c 0,14 -9.3,25.8 -22.1,29.6 v -9 l -15,10.3 -57.5,0.1 v 8.4 H 274 l 14.1,9.1 v -9.8 c 17.5,-3.4 30.7,-18.8 30.7,-37.3 V 61.8 44.7 c 1.6,-0.3 3.1,-0.7 4.6,-1.4 2.6,-1.2 4.9,-2.8 6.9,-4.8 1.9,-2 3.5,-4.4 4.6,-7.2 1.1,-2.8 1.7,-5.7 1.7,-8.8 0,-3.1 -0.6,-6 -1.7,-8.8 z m -8.2,14.5 c -0.7,1.8 -1.6,3.4 -2.7,4.7 -1.1,1.3 -2.5,2.4 -4.1,3.2 -1.6,0.8 -3.2,1.2 -5,1.2 -1.7,0 -3.4,-0.4 -5,-1.2 -1.6,-0.8 -2.9,-1.8 -4.1,-3.2 -1.2,-1.4 -2.1,-2.9 -2.7,-4.7 -0.7,-1.8 -1,-3.7 -1,-5.8 0,-2 0.3,-4 1,-5.8 0.7,-1.8 1.6,-3.4 2.7,-4.7 1.2,-1.3 2.5,-2.4 4.1,-3.2 1.6,-0.8 3.2,-1.2 5,-1.2 1.7,0 3.4,0.4 5,1.2 1.6,0.8 2.9,1.8 4.1,3.2 1.2,1.4 2,2.9 2.7,4.7 0.7,1.8 1,3.7 1,5.8 0,2.1 -0.4,4 -1,5.8 z"
   id="path16" />
	<path
   class="st0"
   d="M 248.5,13.7 C 247.4,10.9 246,8.6 244.1,6.5 242.2,4.5 240,2.9 237.5,1.7 235,0.5 232.2,0 229.2,0 c -2.8,0 -5.4,0.5 -7.6,1.4 -2.3,1 -4.2,2.3 -6,4 L 213.8,1 H 207 v 77.4 h -46.8 l -15,-10.3 v 10.2 c -16.2,-0.9 -29,-14.4 -29,-30.8 v -2.9 c 1.5,-0.3 3,-0.7 4.4,-1.4 2.6,-1.2 4.9,-2.8 6.9,-4.8 1.9,-2 3.5,-4.4 4.6,-7.2 1.1,-2.8 1.7,-5.7 1.7,-8.8 0,-3.1 -0.6,-6 -1.7,-8.8 -1.1,-2.8 -2.7,-5.1 -4.6,-7.2 -1.9,-2 -4.2,-3.6 -6.9,-4.8 -2.6,-1.2 -5.4,-1.8 -8.3,-1.8 -3,0 -5.8,0.6 -8.4,1.8 -2.6,1.2 -5,2.9 -6.9,5 -1.9,2 -3.5,4.4 -4.6,7.2 -1.1,2.8 -1.7,5.7 -1.7,8.8 0,3.1 0.6,6 1.7,8.8 1.1,2.8 2.7,5.1 4.6,7.2 1.9,2 4.2,3.6 6.8,4.8 1.2,0.5 2.5,0.9 3.8,1.2 V 49 c 0,20.8 16.8,37.8 37.6,38 v 9.1 L 159.3,87 H 207 v 49.7 h 8.6 v -24.6 -8.4 -64.4 c 1.7,1.9 3.6,3.3 5.9,4.3 2.3,1 4.8,1.5 7.7,1.5 3,0 5.8,-0.6 8.3,-1.8 2.5,-1.2 4.8,-2.8 6.6,-4.8 1.9,-2 3.3,-4.4 4.4,-7.2 1,-2.8 1.6,-5.7 1.6,-8.8 -0.1,-3.1 -0.6,-6 -1.6,-8.8 z M 107.2,36.2 c -1.6,-0.8 -2.9,-1.8 -4.1,-3.2 -1.2,-1.4 -2.1,-2.9 -2.7,-4.7 -0.7,-1.8 -1,-3.7 -1,-5.8 0,-2 0.3,-4 1,-5.8 0.7,-1.8 1.6,-3.4 2.7,-4.7 1.2,-1.3 2.5,-2.4 4.1,-3.2 1.6,-0.8 3.2,-1.2 5,-1.2 1.8,0 3.4,0.4 5,1.2 1.6,0.8 2.9,1.8 4.1,3.2 1.1,1.3 2,2.9 2.7,4.7 0.7,1.8 1,3.7 1,5.8 0,2 -0.3,4 -1,5.8 -0.7,1.8 -1.6,3.4 -2.7,4.7 -1.1,1.4 -2.5,2.4 -4.1,3.2 -1.6,0.8 -3.2,1.2 -5,1.2 -1.8,0 -3.5,-0.5 -5,-1.2 z m 133,-7.9 c -0.7,1.8 -1.6,3.4 -2.7,4.7 -1.1,1.3 -2.5,2.4 -4.1,3.2 -1.6,0.8 -3.2,1.2 -5,1.2 -1.7,0 -3.4,-0.3 -5,-0.8 -1.6,-0.5 -2.9,-1.4 -4.1,-2.6 -1.2,-1.2 -2.1,-2.7 -2.7,-4.6 -0.6,-1.9 -1,-4.2 -1,-6.9 0,-2.5 0.3,-4.7 1,-6.5 0.7,-1.8 1.6,-3.4 2.7,-4.6 1.2,-1.2 2.5,-2.1 4.1,-2.7 1.6,-0.6 3.2,-0.9 5,-0.9 1.7,0 3.4,0.4 5,1.1 1.6,0.7 2.9,1.8 4.1,3.1 1.1,1.3 2,2.9 2.7,4.7 0.7,1.8 1,3.7 1,5.7 0,2.2 -0.4,4.1 -1,5.9 z"
   id="path18" />
</g>
</svg>
